<?xml version="1.0" encoding="UTF-8"?>
<svg version="1.1" xmlns="http://www.w3.org/2000/svg" width="1024" height="1024">
<path d="M0 0 C0.66 0 1.32 0 2 0 C19.49 34.98 36.98 69.96 55 106 C61.09436092 94.42071424 67.14591339 82.85323721 72.9765625 71.14453125 C73.67953976 69.73670195 74.38269944 68.32896373 75.08602905 66.92131042 C76.89936128 63.29090391 78.7102851 59.65930174 80.52062988 56.02740479 C82.38333238 52.29160226 84.24842063 48.55699118 86.11328125 44.82226562 C89.74446353 37.54931126 93.3730908 30.27508622 97 23 C97.99 23 98.98 23 100 23 C129.17671612 81.30203678 158.3519549 139.60481276 187.51928711 197.9115448 C187.9506668 198.77389 188.38204649 199.63623521 188.82649828 200.52471209 C198.20052665 219.26379103 207.57428819 238.00300344 216.94777471 256.74235343 C221.54423504 265.93153194 226.14075437 275.12068095 230.73730469 284.30981445 C231.19472655 285.2242659 231.65214842 286.13871736 232.12343155 287.08087946 C246.96171592 316.74465398 261.80389783 346.40647632 276.64809261 376.06729356 C291.89673903 406.53631411 307.14147036 437.00729031 322.38124672 467.48074847 C324.53156069 471.78051189 326.68191962 476.08025283 328.83230591 480.37998009 C329.25554996 481.22626591 329.678794 482.07255174 330.11486363 482.94448259 C336.94027957 496.59176317 343.76984493 510.23696319 350.60094717 523.88139824 C357.46099957 537.58387803 364.31671646 551.28851975 371.16795611 564.9954081 C375.2433224 573.14843013 379.3220598 581.2997454 383.40554772 589.44870281 C386.12869443 594.88379512 388.84752777 600.32103013 391.56278243 605.76006941 C393.11275973 608.8645785 394.66467142 611.96808015 396.22182357 615.0689976 C397.89375331 618.40095514 399.5583725 621.73646126 401.22108459 625.0730257 C401.7120143 626.04700407 402.202944 627.02098244 402.70875037 628.02447531 C403.36668886 629.35046512 403.36668886 629.35046512 404.03791904 630.7032426 C404.41975961 631.46645579 404.80160018 632.22966899 405.19501168 633.01600986 C406 635 406 635 406 638 C203.05 638 0.1 638 -209 638 C-207.36047745 629.80238726 -202.73868664 622.47737328 -199 615 C-234.31 614.67 -269.62 614.34 -306 614 C-304.70889297 610.12667891 -303.58512405 606.9203838 -301.80234611 603.35629523 C-301.36209269 602.47129381 -300.92183928 601.58629239 -300.46824485 600.67447275 C-299.98577786 599.7147928 -299.50331088 598.75511286 -299.00622368 597.7663517 C-298.49065039 596.73289743 -297.9750771 595.69944317 -297.44388038 594.63467211 C-296.01012664 591.76277869 -294.57279522 588.89270912 -293.13394864 586.0233649 C-291.57022223 582.90278438 -290.01114438 579.77988243 -288.45147908 576.65727079 C-285.71676857 571.18370222 -282.97908741 565.71162768 -280.23946381 560.24051666 C-276.16575003 552.10515376 -272.09662133 543.96750381 -268.02843526 535.82937559 C-261.18513872 522.14015387 -254.33811753 508.45279834 -247.48897934 494.76649857 C-240.70645347 481.2132766 -233.92557965 467.65923021 -227.14691544 454.10407639 C-226.72560349 453.26158998 -226.30429155 452.41910358 -225.87021258 451.55108728 C-223.73063335 447.27260548 -221.59108367 442.99410889 -219.45154537 438.71560661 C-204.29299924 408.40271635 -189.13074354 378.09168296 -173.96630859 347.78173828 C-159.23331136 318.33410941 -144.50199306 288.88564164 -129.77294922 259.43603516 C-129.31901927 258.52843832 -128.86508933 257.62084148 -128.39740393 256.68574171 C-123.83889849 247.57136783 -119.28042719 238.45697688 -114.72198092 229.3425734 C-105.43571164 210.77510742 -96.14921441 192.20775545 -86.86257935 173.64047241 C-86.43558529 172.78675889 -86.00859124 171.93304536 -85.56865797 171.05346173 C-57.04959036 114.03373109 -28.52520873 57.01665862 0 0 Z " fill="#00FE90" transform="translate(511,205)"/>
<path d="M0 0 C0.99 0 1.98 0 3 0 C32.17671612 58.30203678 61.3519549 116.60481276 90.51928711 174.9115448 C90.9506668 175.77389 91.38204649 176.63623521 91.82649828 177.52471209 C101.20052665 196.26379103 110.57428819 215.00300344 119.94777471 233.74235343 C124.54423504 242.93153194 129.14075437 252.12068095 133.73730469 261.30981445 C134.19472655 262.2242659 134.65214842 263.13871736 135.12343155 264.08087946 C149.96171592 293.74465398 164.80389783 323.40647632 179.64809261 353.06729356 C194.89673903 383.53631411 210.14147036 414.00729031 225.38124672 444.48074847 C227.53156069 448.78051189 229.68191962 453.08025283 231.83230591 457.37998009 C232.25554996 458.22626591 232.678794 459.07255174 233.11486363 459.94448259 C239.94027957 473.59176317 246.76984493 487.23696319 253.60094717 500.88139824 C260.46099957 514.58387803 267.31671646 528.28851975 274.16795611 541.9954081 C278.2433224 550.14843013 282.3220598 558.2997454 286.40554772 566.44870281 C289.12869443 571.88379512 291.84752777 577.32103013 294.56278243 582.76006941 C296.11275973 585.8645785 297.66467142 588.96808015 299.22182357 592.0689976 C300.89375331 595.40095514 302.5583725 598.73646126 304.22108459 602.0730257 C304.7120143 603.04700407 305.202944 604.02098244 305.70875037 605.02447531 C306.36668886 606.35046512 306.36668886 606.35046512 307.03791904 607.7032426 C307.41975961 608.46645579 307.80160018 609.22966899 308.19501168 610.01600986 C309 612 309 612 309 615 C106.05 615 -96.9 615 -306 615 C-304.27412849 606.37064244 -299.09868622 598.78750382 -295 591 C-128.35 590.67 38.3 590.34 210 590 C191.89253906 553.80828125 173.78507812 517.6165625 155.12890625 480.328125 C144.37657814 458.8330722 133.62430422 437.33799264 122.87303913 415.84240818 C116.56956536 403.23954322 110.26605426 390.63669693 103.9624281 378.03390819 C103.19992313 376.50943793 102.43741934 374.98496709 101.67491674 373.46049565 C89.51167909 349.14255926 77.34585317 324.82591887 65.17867877 300.50995198 C52.67732754 275.52610209 40.17858937 250.54094669 27.68315379 225.55413756 C25.91964891 222.02770414 24.15611406 218.50128571 22.39256096 214.9748764 C22.04545761 214.28080455 21.69835426 213.58673271 21.34073263 212.87162838 C15.74552091 201.68357151 10.14754324 190.49690079 4.54853877 179.3107416 C-1.07560383 168.07421265 -6.69685076 156.83623902 -12.31511622 145.59677032 C-15.36119026 139.50323175 -18.40856416 133.41035163 -21.45956612 127.31927872 C-24.24916235 121.74976981 -27.03510786 116.1784512 -29.81808329 110.6056312 C-30.82880516 108.58333763 -31.84089868 106.56172892 -32.85445576 104.54085484 C-34.22564764 101.80642739 -35.59194844 99.0696119 -36.95699215 96.33211136 C-37.35705584 95.537238 -37.75711953 94.74236465 -38.16930637 93.92340422 C-38.71235888 92.8305573 -38.71235888 92.8305573 -39.26638216 91.71563268 C-39.57943527 91.08983841 -39.89248838 90.46404415 -40.21502795 89.81928642 C-41.0660385 87.84694622 -41.68073878 86.12885154 -42 84 C-40.86014729 81.16241977 -39.65106725 78.54516193 -38.25805664 75.83496094 C-37.8485527 75.0150769 -37.43904877 74.19519287 -37.01713562 73.35046387 C-35.65944123 70.63925836 -34.28493805 67.93695051 -32.91015625 65.234375 C-31.96603221 63.35731613 -31.02296587 61.47972492 -30.08091736 59.60162354 C-27.59752136 54.65775026 -25.09979581 49.72125278 -22.59906006 44.78613281 C-20.05021755 39.74980226 -17.51493428 34.70665803 -14.97851562 29.6640625 C-9.99895575 19.76930957 -5.0042375 9.88229251 0 0 Z " fill="#000000" transform="translate(608,228)"/>
</svg>
